<mxfile host="Electron" modified="2023-11-02T17:21:30.507Z" agent="Mozilla/5.0 (Windows NT 10.0; Win64; x64) AppleWebKit/537.36 (KHTML, like Gecko) draw.io/21.8.2 Chrome/114.0.5735.289 Electron/25.8.1 Safari/537.36" etag="Sw9j9VorGgelSsi-fLIJ" version="21.8.2" type="device">
  <diagram name="Seite-1" id="GcXZL0I9dnmrnBWTQ1OY">
    <mxGraphModel dx="574" dy="338" grid="1" gridSize="1" guides="1" tooltips="1" connect="1" arrows="1" fold="1" page="1" pageScale="1" pageWidth="827" pageHeight="1169" math="0" shadow="0">
      <root>
        <mxCell id="0" />
        <mxCell id="1" parent="0" />
        <mxCell id="Pd6vMfUHOLJDIAORuaZe-116" value="" style="group" vertex="1" connectable="0" parent="1">
          <mxGeometry x="222" y="138" width="208" height="270" as="geometry" />
        </mxCell>
        <mxCell id="Pd6vMfUHOLJDIAORuaZe-106" value="" style="group" vertex="1" connectable="0" parent="Pd6vMfUHOLJDIAORuaZe-116">
          <mxGeometry x="27" width="154" height="270" as="geometry" />
        </mxCell>
        <mxCell id="Pd6vMfUHOLJDIAORuaZe-94" value="" style="group" vertex="1" connectable="0" parent="Pd6vMfUHOLJDIAORuaZe-106">
          <mxGeometry width="154" height="270" as="geometry" />
        </mxCell>
        <mxCell id="Pd6vMfUHOLJDIAORuaZe-97" value="&lt;font style=&quot;font-size: 6px;&quot;&gt;45Â°&lt;/font&gt;" style="text;html=1;align=center;verticalAlign=middle;resizable=0;points=[];autosize=1;strokeColor=none;fillColor=none;" vertex="1" parent="Pd6vMfUHOLJDIAORuaZe-94">
          <mxGeometry x="89" y="233" width="28" height="27" as="geometry" />
        </mxCell>
        <mxCell id="Pd6vMfUHOLJDIAORuaZe-88" value="" style="endArrow=baseDash;html=1;rounded=0;startArrow=baseDash;startFill=0;endFill=0;endSize=3;startSize=3;" edge="1" parent="Pd6vMfUHOLJDIAORuaZe-94">
          <mxGeometry width="50" height="50" relative="1" as="geometry">
            <mxPoint x="100" y="151" as="sourcePoint" />
            <mxPoint x="100" y="59" as="targetPoint" />
          </mxGeometry>
        </mxCell>
        <mxCell id="Pd6vMfUHOLJDIAORuaZe-91" value="Front" style="shape=flexArrow;endArrow=classic;html=1;rounded=0;endWidth=6.6420118343195265;endSize=3.423076923076923;width=3.4615384615384612;fillColor=#FF3333;strokeColor=#FF3333;labelBackgroundColor=none;fontSize=7;" edge="1" parent="Pd6vMfUHOLJDIAORuaZe-94">
          <mxGeometry x="1" y="6" width="50" height="50" relative="1" as="geometry">
            <mxPoint x="76" y="27" as="sourcePoint" />
            <mxPoint x="76" as="targetPoint" />
            <mxPoint x="6" y="-6" as="offset" />
          </mxGeometry>
        </mxCell>
        <mxCell id="Pd6vMfUHOLJDIAORuaZe-93" value="" style="endArrow=none;html=1;exitX=-0.032;exitY=-0.031;exitDx=0;exitDy=0;exitPerimeter=0;curved=1;" edge="1" parent="Pd6vMfUHOLJDIAORuaZe-94" source="Pd6vMfUHOLJDIAORuaZe-49">
          <mxGeometry width="50" height="50" relative="1" as="geometry">
            <mxPoint x="61" y="87" as="sourcePoint" />
            <mxPoint x="58" y="59" as="targetPoint" />
            <Array as="points">
              <mxPoint x="58" y="50" />
            </Array>
          </mxGeometry>
        </mxCell>
        <mxCell id="Pd6vMfUHOLJDIAORuaZe-60" value="" style="endArrow=none;dashed=1;html=1;rounded=0;dashPattern=1 2;opacity=60;" edge="1" parent="Pd6vMfUHOLJDIAORuaZe-94">
          <mxGeometry width="50" height="50" relative="1" as="geometry">
            <mxPoint x="17" y="151" as="sourcePoint" />
            <mxPoint x="60" y="151" as="targetPoint" />
          </mxGeometry>
        </mxCell>
        <mxCell id="Pd6vMfUHOLJDIAORuaZe-64" value="" style="endArrow=none;dashed=1;html=1;rounded=0;dashPattern=1 2;opacity=60;" edge="1" parent="Pd6vMfUHOLJDIAORuaZe-94">
          <mxGeometry width="50" height="50" relative="1" as="geometry">
            <mxPoint x="76" y="263" as="sourcePoint" />
            <mxPoint x="76" y="152" as="targetPoint" />
          </mxGeometry>
        </mxCell>
        <mxCell id="Pd6vMfUHOLJDIAORuaZe-85" value="" style="endArrow=none;dashed=1;html=1;rounded=0;dashPattern=1 2;entryX=0.478;entryY=0.014;entryDx=0;entryDy=0;entryPerimeter=0;opacity=60;" edge="1" parent="Pd6vMfUHOLJDIAORuaZe-94" target="Pd6vMfUHOLJDIAORuaZe-42">
          <mxGeometry width="50" height="50" relative="1" as="geometry">
            <mxPoint x="117" y="243" as="sourcePoint" />
            <mxPoint x="77" y="153" as="targetPoint" />
          </mxGeometry>
        </mxCell>
        <mxCell id="Pd6vMfUHOLJDIAORuaZe-39" value="" style="endArrow=none;html=1;rounded=0;" edge="1" parent="Pd6vMfUHOLJDIAORuaZe-94">
          <mxGeometry width="50" height="50" relative="1" as="geometry">
            <mxPoint x="17" y="223.18" as="sourcePoint" />
            <mxPoint x="17" y="79.18" as="targetPoint" />
          </mxGeometry>
        </mxCell>
        <mxCell id="Pd6vMfUHOLJDIAORuaZe-40" value="" style="endArrow=none;html=1;rounded=0;" edge="1" parent="Pd6vMfUHOLJDIAORuaZe-94">
          <mxGeometry width="50" height="50" relative="1" as="geometry">
            <mxPoint x="137" y="223.18" as="sourcePoint" />
            <mxPoint x="137" y="79.18" as="targetPoint" />
          </mxGeometry>
        </mxCell>
        <mxCell id="Pd6vMfUHOLJDIAORuaZe-41" value="" style="endArrow=none;html=1;rounded=0;" edge="1" parent="Pd6vMfUHOLJDIAORuaZe-94">
          <mxGeometry width="50" height="50" relative="1" as="geometry">
            <mxPoint x="57" y="263.18" as="sourcePoint" />
            <mxPoint x="17" y="223.18" as="targetPoint" />
          </mxGeometry>
        </mxCell>
        <mxCell id="Pd6vMfUHOLJDIAORuaZe-42" value="" style="rounded=0;whiteSpace=wrap;html=1;rotation=45;container=0;" vertex="1" parent="Pd6vMfUHOLJDIAORuaZe-94">
          <mxGeometry x="14.269999999999982" y="241.12" width="35" height="15" as="geometry" />
        </mxCell>
        <mxCell id="Pd6vMfUHOLJDIAORuaZe-43" value="" style="endArrow=none;html=1;rounded=0;" edge="1" parent="Pd6vMfUHOLJDIAORuaZe-94">
          <mxGeometry width="50" height="50" relative="1" as="geometry">
            <mxPoint x="97" y="263.18" as="sourcePoint" />
            <mxPoint x="137" y="223.18" as="targetPoint" />
          </mxGeometry>
        </mxCell>
        <mxCell id="Pd6vMfUHOLJDIAORuaZe-44" value="" style="rounded=0;whiteSpace=wrap;html=1;rotation=-45;container=0;" vertex="1" parent="Pd6vMfUHOLJDIAORuaZe-94">
          <mxGeometry x="105" y="241.12" width="35" height="15" as="geometry" />
        </mxCell>
        <mxCell id="Pd6vMfUHOLJDIAORuaZe-45" value="" style="endArrow=none;html=1;rounded=0;targetPerimeterSpacing=1;sourcePerimeterSpacing=1;startArrow=none;startFill=0;endFill=0;endSize=1;startSize=1;" edge="1" parent="Pd6vMfUHOLJDIAORuaZe-94">
          <mxGeometry width="50" height="50" relative="1" as="geometry">
            <mxPoint x="97" y="263.18" as="sourcePoint" />
            <mxPoint x="57" y="263.18" as="targetPoint" />
          </mxGeometry>
        </mxCell>
        <mxCell id="Pd6vMfUHOLJDIAORuaZe-51" value="" style="rounded=0;whiteSpace=wrap;html=1;rotation=90;container=0;" vertex="1" parent="Pd6vMfUHOLJDIAORuaZe-94">
          <mxGeometry x="-8" y="144.18" width="35" height="15" as="geometry" />
        </mxCell>
        <mxCell id="Pd6vMfUHOLJDIAORuaZe-55" value="" style="rounded=0;whiteSpace=wrap;html=1;rotation=90;container=0;" vertex="1" parent="Pd6vMfUHOLJDIAORuaZe-94">
          <mxGeometry x="127" y="144.18" width="35" height="15" as="geometry" />
        </mxCell>
        <mxCell id="Pd6vMfUHOLJDIAORuaZe-46" value="" style="endArrow=none;html=1;rounded=0;" edge="1" parent="Pd6vMfUHOLJDIAORuaZe-94">
          <mxGeometry width="50" height="50" relative="1" as="geometry">
            <mxPoint x="96.91233047033626" y="39.18000000000001" as="sourcePoint" />
            <mxPoint x="136.91233047033626" y="79.18" as="targetPoint" />
          </mxGeometry>
        </mxCell>
        <mxCell id="Pd6vMfUHOLJDIAORuaZe-47" value="" style="rounded=0;whiteSpace=wrap;html=1;rotation=-135;container=0;" vertex="1" parent="Pd6vMfUHOLJDIAORuaZe-94">
          <mxGeometry x="104.91233047033626" y="46.18000000000001" width="35" height="15" as="geometry" />
        </mxCell>
        <mxCell id="Pd6vMfUHOLJDIAORuaZe-48" value="" style="endArrow=none;html=1;rounded=0;" edge="1" parent="Pd6vMfUHOLJDIAORuaZe-94">
          <mxGeometry width="50" height="50" relative="1" as="geometry">
            <mxPoint x="56.91233047033626" y="39.18000000000001" as="sourcePoint" />
            <mxPoint x="16.912330470336258" y="79.18" as="targetPoint" />
          </mxGeometry>
        </mxCell>
        <mxCell id="Pd6vMfUHOLJDIAORuaZe-49" value="" style="rounded=0;whiteSpace=wrap;html=1;rotation=-225;container=0;" vertex="1" parent="Pd6vMfUHOLJDIAORuaZe-94">
          <mxGeometry x="13.912330470336258" y="46.18000000000001" width="35" height="15" as="geometry" />
        </mxCell>
        <mxCell id="Pd6vMfUHOLJDIAORuaZe-50" value="" style="endArrow=none;html=1;rounded=0;targetPerimeterSpacing=1;sourcePerimeterSpacing=1;startArrow=none;startFill=0;endFill=0;endSize=1;startSize=1;" edge="1" parent="Pd6vMfUHOLJDIAORuaZe-94">
          <mxGeometry width="50" height="50" relative="1" as="geometry">
            <mxPoint x="56.91233047033626" y="39.18000000000001" as="sourcePoint" />
            <mxPoint x="96.91233047033626" y="39.18000000000001" as="targetPoint" />
          </mxGeometry>
        </mxCell>
        <mxCell id="Pd6vMfUHOLJDIAORuaZe-65" value="" style="endArrow=none;dashed=1;html=1;rounded=0;dashPattern=1 2;opacity=60;" edge="1" parent="Pd6vMfUHOLJDIAORuaZe-94">
          <mxGeometry width="50" height="50" relative="1" as="geometry">
            <mxPoint x="77" y="151.08999999999997" as="sourcePoint" />
            <mxPoint x="136" y="151" as="targetPoint" />
          </mxGeometry>
        </mxCell>
        <mxCell id="Pd6vMfUHOLJDIAORuaZe-66" value="" style="endArrow=none;dashed=1;html=1;rounded=0;dashPattern=1 2;opacity=60;" edge="1" parent="Pd6vMfUHOLJDIAORuaZe-94">
          <mxGeometry width="50" height="50" relative="1" as="geometry">
            <mxPoint x="76" y="135" as="sourcePoint" />
            <mxPoint x="76" y="40" as="targetPoint" />
          </mxGeometry>
        </mxCell>
        <mxCell id="Pd6vMfUHOLJDIAORuaZe-74" value="x" style="endArrow=classic;html=1;rounded=0;endSize=1;startSize=1;labelBackgroundColor=none;fontSize=6;fontColor=#FF0000;strokeColor=#FF0000;" edge="1" parent="Pd6vMfUHOLJDIAORuaZe-94">
          <mxGeometry x="0.2645" y="-4" width="50" height="50" relative="1" as="geometry">
            <mxPoint x="37" y="243.12" as="sourcePoint" />
            <mxPoint x="26" y="254.12" as="targetPoint" />
            <mxPoint as="offset" />
          </mxGeometry>
        </mxCell>
        <mxCell id="Pd6vMfUHOLJDIAORuaZe-75" value="y" style="endArrow=classic;html=1;rounded=0;endSize=1;startSize=1;strokeWidth=1;fontSize=6;labelBackgroundColor=none;fontColor=#00FF00;strokeColor=#00FF00;" edge="1" parent="Pd6vMfUHOLJDIAORuaZe-94">
          <mxGeometry x="0.0991" y="4" width="50" height="50" relative="1" as="geometry">
            <mxPoint x="37" y="243.12" as="sourcePoint" />
            <mxPoint x="48" y="254.12" as="targetPoint" />
            <mxPoint as="offset" />
          </mxGeometry>
        </mxCell>
        <mxCell id="Pd6vMfUHOLJDIAORuaZe-86" value="" style="endArrow=none;dashed=1;html=1;rounded=0;dashPattern=1 2;opacity=60;" edge="1" parent="Pd6vMfUHOLJDIAORuaZe-94">
          <mxGeometry width="50" height="50" relative="1" as="geometry">
            <mxPoint x="116" y="59" as="sourcePoint" />
            <mxPoint x="37" y="59" as="targetPoint" />
          </mxGeometry>
        </mxCell>
        <mxCell id="Pd6vMfUHOLJDIAORuaZe-61" value="x" style="endArrow=classic;html=1;rounded=0;endSize=1;startSize=1;labelBackgroundColor=none;fontSize=6;fontColor=#FF0000;strokeColor=#FF0000;" edge="1" parent="Pd6vMfUHOLJDIAORuaZe-94">
          <mxGeometry x="0.25" y="-3" width="50" height="50" relative="1" as="geometry">
            <mxPoint x="76" y="151" as="sourcePoint" />
            <mxPoint x="76" y="135" as="targetPoint" />
            <mxPoint as="offset" />
          </mxGeometry>
        </mxCell>
        <mxCell id="Pd6vMfUHOLJDIAORuaZe-62" value="y" style="endArrow=classic;html=1;rounded=0;endSize=1;startSize=1;strokeWidth=1;fontSize=6;labelBackgroundColor=none;fontColor=#00FF00;strokeColor=#00FF00;" edge="1" parent="Pd6vMfUHOLJDIAORuaZe-94">
          <mxGeometry x="0.25" y="3" width="50" height="50" relative="1" as="geometry">
            <mxPoint x="76" y="151" as="sourcePoint" />
            <mxPoint x="60" y="151" as="targetPoint" />
            <mxPoint as="offset" />
          </mxGeometry>
        </mxCell>
        <mxCell id="Pd6vMfUHOLJDIAORuaZe-83" value="x" style="endArrow=classic;html=1;rounded=0;endSize=1;startSize=1;labelBackgroundColor=none;fontSize=6;fontColor=#FF0000;strokeColor=#FF0000;" edge="1" parent="Pd6vMfUHOLJDIAORuaZe-94">
          <mxGeometry x="0.25" y="-3" width="50" height="50" relative="1" as="geometry">
            <mxPoint x="117" y="244" as="sourcePoint" />
            <mxPoint x="128" y="255" as="targetPoint" />
            <mxPoint as="offset" />
          </mxGeometry>
        </mxCell>
        <mxCell id="Pd6vMfUHOLJDIAORuaZe-84" value="y" style="endArrow=classic;html=1;rounded=0;endSize=1;startSize=1;strokeWidth=1;fontSize=6;labelBackgroundColor=none;fontColor=#00FF00;strokeColor=#00FF00;" edge="1" parent="Pd6vMfUHOLJDIAORuaZe-94">
          <mxGeometry x="0.25" y="3" width="50" height="50" relative="1" as="geometry">
            <mxPoint x="117" y="244" as="sourcePoint" />
            <mxPoint x="128" y="233" as="targetPoint" />
            <mxPoint as="offset" />
          </mxGeometry>
        </mxCell>
        <mxCell id="Pd6vMfUHOLJDIAORuaZe-68" value="x" style="endArrow=classic;html=1;rounded=0;endSize=1;startSize=1;labelBackgroundColor=none;fontSize=6;fontColor=#FF0000;strokeColor=#FF0000;" edge="1" parent="Pd6vMfUHOLJDIAORuaZe-94">
          <mxGeometry x="0.25" y="-3" width="50" height="50" relative="1" as="geometry">
            <mxPoint x="16" y="151" as="sourcePoint" />
            <mxPoint y="151" as="targetPoint" />
            <mxPoint as="offset" />
          </mxGeometry>
        </mxCell>
        <mxCell id="Pd6vMfUHOLJDIAORuaZe-69" value="y" style="endArrow=classic;html=1;rounded=0;endSize=1;startSize=1;strokeWidth=1;fontSize=6;labelBackgroundColor=none;fontColor=#00FF00;strokeColor=#00FF00;" edge="1" parent="Pd6vMfUHOLJDIAORuaZe-94">
          <mxGeometry x="0.25" y="4" width="50" height="50" relative="1" as="geometry">
            <mxPoint x="16" y="151" as="sourcePoint" />
            <mxPoint x="16" y="167" as="targetPoint" />
            <mxPoint as="offset" />
          </mxGeometry>
        </mxCell>
        <mxCell id="Pd6vMfUHOLJDIAORuaZe-80" value="x" style="endArrow=classic;html=1;rounded=0;endSize=1;startSize=1;labelBackgroundColor=none;fontSize=6;fontColor=#FF0000;strokeColor=#FF0000;" edge="1" parent="Pd6vMfUHOLJDIAORuaZe-94">
          <mxGeometry x="0.25" y="-3" width="50" height="50" relative="1" as="geometry">
            <mxPoint x="138" y="150.83999999999997" as="sourcePoint" />
            <mxPoint x="154" y="150.83999999999997" as="targetPoint" />
            <mxPoint as="offset" />
          </mxGeometry>
        </mxCell>
        <mxCell id="Pd6vMfUHOLJDIAORuaZe-81" value="y" style="endArrow=classic;html=1;rounded=0;endSize=1;startSize=1;strokeWidth=1;fontSize=6;labelBackgroundColor=none;fontColor=#00FF00;strokeColor=#00FF00;" edge="1" parent="Pd6vMfUHOLJDIAORuaZe-94">
          <mxGeometry x="0.25" y="3" width="50" height="50" relative="1" as="geometry">
            <mxPoint x="138" y="150.83999999999997" as="sourcePoint" />
            <mxPoint x="138" y="134.83999999999997" as="targetPoint" />
            <mxPoint as="offset" />
          </mxGeometry>
        </mxCell>
        <mxCell id="Pd6vMfUHOLJDIAORuaZe-71" value="x" style="endArrow=classic;html=1;rounded=0;endSize=1;startSize=1;labelBackgroundColor=none;fontSize=6;fontColor=#FF0000;strokeColor=#FF0000;" edge="1" parent="Pd6vMfUHOLJDIAORuaZe-94">
          <mxGeometry x="0.25" y="-3" width="50" height="50" relative="1" as="geometry">
            <mxPoint x="37" y="58" as="sourcePoint" />
            <mxPoint x="26" y="47" as="targetPoint" />
            <mxPoint as="offset" />
          </mxGeometry>
        </mxCell>
        <mxCell id="Pd6vMfUHOLJDIAORuaZe-72" value="y" style="endArrow=classic;html=1;rounded=0;endSize=1;startSize=1;strokeWidth=1;fontSize=6;labelBackgroundColor=none;fontColor=#00FF00;strokeColor=#00FF00;" edge="1" parent="Pd6vMfUHOLJDIAORuaZe-94">
          <mxGeometry x="0.1818" y="4" width="50" height="50" relative="1" as="geometry">
            <mxPoint x="37" y="58" as="sourcePoint" />
            <mxPoint x="26" y="69" as="targetPoint" />
            <mxPoint as="offset" />
          </mxGeometry>
        </mxCell>
        <mxCell id="Pd6vMfUHOLJDIAORuaZe-77" value="x" style="endArrow=classic;html=1;rounded=0;endSize=1;startSize=1;labelBackgroundColor=none;fontSize=6;fontColor=#FF0000;strokeColor=#FF0000;" edge="1" parent="Pd6vMfUHOLJDIAORuaZe-94">
          <mxGeometry x="0.25" y="-3" width="50" height="50" relative="1" as="geometry">
            <mxPoint x="118" y="59" as="sourcePoint" />
            <mxPoint x="129" y="48" as="targetPoint" />
            <mxPoint as="offset" />
          </mxGeometry>
        </mxCell>
        <mxCell id="Pd6vMfUHOLJDIAORuaZe-78" value="y" style="endArrow=classic;html=1;rounded=0;endSize=1;startSize=1;strokeWidth=1;fontSize=6;labelBackgroundColor=none;fontColor=#00FF00;strokeColor=#00FF00;" edge="1" parent="Pd6vMfUHOLJDIAORuaZe-94">
          <mxGeometry x="0.25" y="3" width="50" height="50" relative="1" as="geometry">
            <mxPoint x="118" y="59" as="sourcePoint" />
            <mxPoint x="107" y="48" as="targetPoint" />
            <mxPoint as="offset" />
          </mxGeometry>
        </mxCell>
        <mxCell id="Pd6vMfUHOLJDIAORuaZe-89" value="" style="endArrow=baseDash;html=1;rounded=0;startArrow=baseDash;startFill=0;endFill=0;endSize=3;startSize=3;" edge="1" parent="Pd6vMfUHOLJDIAORuaZe-94">
          <mxGeometry width="50" height="50" relative="1" as="geometry">
            <mxPoint x="100" y="243" as="sourcePoint" />
            <mxPoint x="100" y="151" as="targetPoint" />
          </mxGeometry>
        </mxCell>
        <mxCell id="Pd6vMfUHOLJDIAORuaZe-90" value="" style="endArrow=baseDash;html=1;rounded=0;startArrow=baseDash;startFill=0;endFill=0;endSize=3;startSize=3;" edge="1" parent="Pd6vMfUHOLJDIAORuaZe-94">
          <mxGeometry width="50" height="50" relative="1" as="geometry">
            <mxPoint x="76" y="131" as="sourcePoint" />
            <mxPoint x="18" y="131" as="targetPoint" />
          </mxGeometry>
        </mxCell>
        <mxCell id="Pd6vMfUHOLJDIAORuaZe-96" value="&lt;font style=&quot;font-size: 6px;&quot;&gt;45Â°&lt;/font&gt;" style="text;html=1;align=center;verticalAlign=middle;resizable=0;points=[];autosize=1;strokeColor=none;fillColor=none;" vertex="1" parent="Pd6vMfUHOLJDIAORuaZe-94">
          <mxGeometry x="36" y="39" width="28" height="27" as="geometry" />
        </mxCell>
        <mxCell id="Pd6vMfUHOLJDIAORuaZe-99" value="" style="endArrow=none;html=1;curved=1;" edge="1" parent="Pd6vMfUHOLJDIAORuaZe-94">
          <mxGeometry width="50" height="50" relative="1" as="geometry">
            <mxPoint x="103" y="257" as="sourcePoint" />
            <mxPoint x="96" y="243" as="targetPoint" />
            <Array as="points">
              <mxPoint x="95" y="253" />
            </Array>
          </mxGeometry>
        </mxCell>
        <mxCell id="Pd6vMfUHOLJDIAORuaZe-100" value="&lt;font style=&quot;font-size: 6px;&quot;&gt;0.1 m&lt;/font&gt;" style="text;html=1;align=center;verticalAlign=middle;resizable=0;points=[];autosize=1;strokeColor=none;fillColor=none;" vertex="1" parent="Pd6vMfUHOLJDIAORuaZe-94">
          <mxGeometry x="29" y="112" width="34" height="27" as="geometry" />
        </mxCell>
        <mxCell id="Pd6vMfUHOLJDIAORuaZe-102" value="&lt;font style=&quot;font-size: 6px;&quot;&gt;0.125 m&lt;/font&gt;" style="text;html=1;align=center;verticalAlign=middle;resizable=0;points=[];autosize=1;strokeColor=none;fillColor=none;rotation=-90;" vertex="1" parent="Pd6vMfUHOLJDIAORuaZe-94">
          <mxGeometry x="74" y="90" width="41" height="27" as="geometry" />
        </mxCell>
        <mxCell id="Pd6vMfUHOLJDIAORuaZe-103" value="&lt;font style=&quot;font-size: 6px;&quot;&gt;0.125 m&lt;/font&gt;" style="text;html=1;align=center;verticalAlign=middle;resizable=0;points=[];autosize=1;strokeColor=none;fillColor=none;rotation=-90;" vertex="1" parent="Pd6vMfUHOLJDIAORuaZe-94">
          <mxGeometry x="74" y="185" width="41" height="27" as="geometry" />
        </mxCell>
        <mxCell id="Pd6vMfUHOLJDIAORuaZe-105" value="&lt;font style=&quot;font-size: 6px;&quot;&gt;0.065 m&lt;br&gt;&lt;/font&gt;" style="text;html=1;align=center;verticalAlign=middle;resizable=0;points=[];autosize=1;strokeColor=none;fillColor=none;rotation=0;" vertex="1" parent="Pd6vMfUHOLJDIAORuaZe-94">
          <mxGeometry x="35" y="214.12" width="41" height="27" as="geometry" />
        </mxCell>
        <mxCell id="Pd6vMfUHOLJDIAORuaZe-108" value="&lt;font style=&quot;font-size: 6px;&quot;&gt;LFL&lt;/font&gt;" style="text;html=1;align=center;verticalAlign=middle;resizable=0;points=[];autosize=1;strokeColor=none;fillColor=none;" vertex="1" parent="Pd6vMfUHOLJDIAORuaZe-94">
          <mxGeometry x="-2" y="28" width="29" height="27" as="geometry" />
        </mxCell>
        <mxCell id="Pd6vMfUHOLJDIAORuaZe-110" value="&lt;span style=&quot;font-size: 6px;&quot;&gt;LBL&lt;/span&gt;" style="text;html=1;align=center;verticalAlign=middle;resizable=0;points=[];autosize=1;strokeColor=none;fillColor=none;" vertex="1" parent="Pd6vMfUHOLJDIAORuaZe-94">
          <mxGeometry x="2" y="245" width="30" height="27" as="geometry" />
        </mxCell>
        <mxCell id="Pd6vMfUHOLJDIAORuaZe-111" value="&lt;span style=&quot;font-size: 6px;&quot;&gt;RBL&lt;br&gt;&lt;/span&gt;" style="text;html=1;align=center;verticalAlign=middle;resizable=0;points=[];autosize=1;strokeColor=none;fillColor=none;" vertex="1" parent="Pd6vMfUHOLJDIAORuaZe-94">
          <mxGeometry x="122" y="245" width="31" height="27" as="geometry" />
        </mxCell>
        <mxCell id="Pd6vMfUHOLJDIAORuaZe-113" value="&lt;span style=&quot;font-size: 6px;&quot;&gt;RFL&lt;br&gt;&lt;/span&gt;" style="text;html=1;align=center;verticalAlign=middle;resizable=0;points=[];autosize=1;strokeColor=none;fillColor=none;" vertex="1" parent="Pd6vMfUHOLJDIAORuaZe-94">
          <mxGeometry x="125" y="28" width="30" height="27" as="geometry" />
        </mxCell>
        <mxCell id="Pd6vMfUHOLJDIAORuaZe-104" value="" style="endArrow=baseDash;html=1;rounded=0;startArrow=baseDash;startFill=0;endFill=0;endSize=3;startSize=3;" edge="1" parent="Pd6vMfUHOLJDIAORuaZe-106">
          <mxGeometry width="50" height="50" relative="1" as="geometry">
            <mxPoint x="76" y="234" as="sourcePoint" />
            <mxPoint x="37" y="234" as="targetPoint" />
          </mxGeometry>
        </mxCell>
        <mxCell id="Pd6vMfUHOLJDIAORuaZe-109" value="&lt;span style=&quot;font-size: 6px;&quot;&gt;LML&lt;/span&gt;" style="text;html=1;align=center;verticalAlign=middle;resizable=0;points=[];autosize=1;strokeColor=none;fillColor=none;" vertex="1" parent="Pd6vMfUHOLJDIAORuaZe-116">
          <mxGeometry y="138" width="31" height="27" as="geometry" />
        </mxCell>
        <mxCell id="Pd6vMfUHOLJDIAORuaZe-112" value="&lt;span style=&quot;font-size: 6px;&quot;&gt;RML&lt;br&gt;&lt;/span&gt;" style="text;html=1;align=center;verticalAlign=middle;resizable=0;points=[];autosize=1;strokeColor=none;fillColor=none;" vertex="1" parent="Pd6vMfUHOLJDIAORuaZe-116">
          <mxGeometry x="176" y="138" width="32" height="27" as="geometry" />
        </mxCell>
      </root>
    </mxGraphModel>
  </diagram>
</mxfile>
